<svg xmlns="http://www.w3.org/2000/svg" width="97" height="96" viewBox="0 0 97 96" fill="none">
<path fill-rule="evenodd" clip-rule="evenodd" d="M48.6 48C48.6 41.3726 53.9726 36 60.6 36C67.2274 36 72.6 41.3726 72.6 48C72.6 54.6274 67.2274 60 60.6 60C53.9726 60 48.6 54.6274 48.6 48Z" fill="#1ABCFE"/>
<path fill-rule="evenodd" clip-rule="evenodd" d="M24.6 72C24.6 65.3726 29.9726 60 36.6 60H48.6V72C48.6 78.6274 43.2274 84 36.6 84C29.9726 84 24.6 78.6274 24.6 72Z" fill="#0ACF83"/>
<path fill-rule="evenodd" clip-rule="evenodd" d="M48.6 12V36H60.6C67.2274 36 72.6 30.6274 72.6 24C72.6 17.3726 67.2274 12 60.6 12H48.6Z" fill="#FF7262"/>
<path fill-rule="evenodd" clip-rule="evenodd" d="M24.6 24C24.6 30.6274 29.9726 36 36.6 36H48.6V12H36.6C29.9726 12 24.6 17.3726 24.6 24Z" fill="#F24E1E"/>
<path fill-rule="evenodd" clip-rule="evenodd" d="M24.6 48C24.6 54.6274 29.9726 60 36.6 60H48.6V36H36.6C29.9726 36 24.6 41.3726 24.6 48Z" fill="#A259FF"/>
</svg>