<svg xmlns="http://www.w3.org/2000/svg" width="97" height="96" viewBox="0 0 97 96" fill="none">
<path d="M6.80005 36.4C6.80005 25.759 6.80005 20.4385 8.87092 16.3742C10.6925 12.7991 13.5991 9.89247 17.1742 8.07088C21.2386 6 26.5591 6 37.2 6H60.4001C71.041 6 76.3615 6 80.4259 8.07088C84.0009 9.89247 86.9076 12.7991 88.7292 16.3742C90.8 20.4385 90.8 25.759 90.8 36.4V59.6C90.8 70.241 90.8 75.5615 88.7292 79.6258C86.9076 83.2009 84.0009 86.1075 80.4259 87.9291C76.3615 90 71.041 90 60.4001 90H37.2C26.559 90 21.2386 90 17.1742 87.9291C13.5991 86.1075 10.6925 83.2009 8.87092 79.6258C6.80005 75.5615 6.80005 70.241 6.80005 59.6V36.4Z" fill="#330000"/>
<path d="M47.5052 58.7888H34.4884L31.84 67.2269C31.7665 67.5404 31.4778 67.7624 31.1638 67.747H24.5708C24.1949 67.747 24.0634 67.5351 24.1764 67.1113L35.4463 33.8214C35.5591 33.4747 35.6718 33.0798 35.7845 32.6366C35.9319 31.8655 36.0074 31.0818 36.0099 30.296C35.9776 30.0639 36.1816 29.8588 36.4044 29.8914H45.3639C45.6264 29.8914 45.7767 29.9877 45.8147 30.1804L58.6063 67.169C58.7189 67.5546 58.6062 67.7473 58.2681 67.747H50.9425C50.6856 67.7762 50.4403 67.6001 50.3791 67.3425L47.5052 58.7888ZM36.517 51.5067H45.4203C43.9575 46.5081 42.3067 41.5753 40.9687 36.5378C39.5251 41.5838 37.9501 46.6094 36.517 51.5067Z" fill="#FF9A00"/>
<path d="M66.2128 36.0175C65.6381 36.0411 65.0649 35.9401 64.5309 35.721C63.9968 35.5019 63.5138 35.1697 63.1136 34.746C62.7144 34.3039 62.4043 33.7853 62.2012 33.22C61.9981 32.6546 61.906 32.0537 61.9301 31.4517C61.9096 30.8556 62.0119 30.2619 62.2304 29.7091C62.4489 29.1564 62.7786 28.6572 63.198 28.244C63.6133 27.8352 64.1036 27.5148 64.6404 27.3016C65.1772 27.0883 65.7499 26.9863 66.3254 27.0015C67.6779 27.0015 68.7392 27.4157 69.5092 28.244C69.898 28.6745 70.2001 29.1795 70.3983 29.7299C70.5965 30.2803 70.6869 30.8654 70.6643 31.4517C70.6879 32.056 70.5928 32.6591 70.3847 33.225C70.1766 33.7909 69.8597 34.3081 69.4529 34.746C69.0276 35.1759 68.5202 35.5108 67.9626 35.7296C67.405 35.9485 66.8092 36.0465 66.2128 36.0175ZM62.3245 67.1688V39.5429C62.3245 39.1962 62.4742 39.0227 62.7754 39.0227H69.7065C70.0067 39.0227 70.157 39.1961 70.1573 39.5429V67.1688C70.1573 67.5545 70.007 67.7471 69.7065 67.7468H62.8317C62.4937 67.7468 62.3246 67.5542 62.3245 67.1688Z" fill="#FF9A00"/>
</svg>