<svg xmlns="http://www.w3.org/2000/svg" width="97" height="96" viewBox="0 0 97 96" fill="none">
<circle cx="48.4" cy="48" r="42" fill="#028CB0"/>
<path d="M19.7662 48C19.7662 59.3469 26.3662 69.12 35.9108 73.7654L22.2539 36.3485C20.614 40.014 19.7663 43.9844 19.7662 48ZM48.4 76.6339C51.7254 76.6339 54.9239 76.05 57.9193 75.0092L57.7162 74.6285L48.9077 50.5131L40.3277 75.4662C42.8662 76.2277 45.5823 76.6339 48.4 76.6339ZM52.3346 34.5715L62.6916 65.3631L65.56 55.8185C66.7785 51.8585 67.7177 49.0154 67.7177 46.5531C67.7177 42.9992 66.4485 40.5623 65.3823 38.6838C63.91 36.2977 62.5646 34.2923 62.5646 31.9569C62.5646 29.3169 64.5446 26.88 67.3877 26.88H67.7431C62.467 22.0364 55.5623 19.3542 48.4 19.3662C43.6577 19.3653 38.9895 20.5433 34.8155 22.7943C30.6414 25.0453 27.0924 28.2986 24.4877 32.2615L26.3154 32.3123C29.3108 32.3123 33.9308 31.9315 33.9308 31.9315C35.5046 31.8554 35.6823 34.1146 34.1339 34.2923C34.1339 34.2923 32.5854 34.4954 30.8339 34.5715L41.2923 65.5915L47.5623 46.8069L43.0946 34.5715C42.0939 34.5163 41.095 34.4317 40.0993 34.3177C38.5508 34.2162 38.7285 31.8554 40.2769 31.9315C40.2769 31.9315 44.9985 32.3123 47.8162 32.3123C50.8116 32.3123 55.4316 31.9315 55.4316 31.9315C56.98 31.8554 57.1831 34.1146 55.6346 34.2923C55.6346 34.2923 54.0862 34.47 52.3346 34.5715ZM62.7931 72.75C67.1248 70.2313 70.7198 66.6199 73.2188 62.2768C75.7177 57.9337 77.0333 53.0108 77.0339 48C77.0339 43.0246 75.7646 38.3538 73.5308 34.2669C73.9844 38.7633 73.3037 43.3016 71.5508 47.4669L62.7931 72.75ZM48.4 81C39.6479 81 31.2542 77.5232 25.0655 71.3345C18.8768 65.1458 15.4 56.7521 15.4 48C15.4 39.2479 18.8768 30.8542 25.0655 24.6655C31.2542 18.4768 39.6479 15 48.4 15C57.1522 15 65.5458 18.4768 71.7346 24.6655C77.9233 30.8542 81.4 39.2479 81.4 48C81.4 56.7521 77.9233 65.1458 71.7346 71.3345C65.5458 77.5232 57.1522 81 48.4 81Z" fill="white"/>
</svg>